<svg width="180" height="50" viewBox="0 0 180 50" fill="none" xmlns="http://www.w3.org/2000/svg">
<rect width="180" height="50" fill="url(#paint0_linear)"/>
<path d="M57.57 19.5H69.84V36H66.09V22.98H61.26L61.11 29.49C61.07 31.67 60.57 33.33 59.61 34.47C58.65 35.59 57.28 36.15 55.5 36.15H54.51V32.73H55.26C55.96 32.73 56.48 32.46 56.82 31.92C57.16 31.36 57.35 30.48 57.39 29.28L57.57 19.5ZM77.5683 29.76C77.5683 30.76 77.8683 31.55 78.4683 32.13C79.0883 32.71 79.9283 33 80.9883 33C82.0483 33 82.8783 32.71 83.4783 32.13C84.0983 31.55 84.4083 30.76 84.4083 29.76V25.71C84.4083 24.71 84.0983 23.92 83.4783 23.34C82.8783 22.76 82.0483 22.47 80.9883 22.47C79.9483 22.47 79.1183 22.76 78.4983 23.34C77.8783 23.92 77.5683 24.71 77.5683 25.71V29.76ZM73.8183 25.71C73.8183 24.73 73.9883 23.84 74.3283 23.04C74.6683 22.24 75.1483 21.56 75.7683 21C76.4083 20.42 77.1683 19.98 78.0483 19.68C78.9283 19.36 79.9083 19.2 80.9883 19.2C82.0683 19.2 83.0483 19.36 83.9283 19.68C84.8083 19.98 85.5583 20.42 86.1783 21C86.8183 21.56 87.3083 22.24 87.6483 23.04C87.9883 23.84 88.1583 24.73 88.1583 25.71V29.76C88.1583 30.74 87.9883 31.64 87.6483 32.46C87.3083 33.26 86.8283 33.95 86.2083 34.53C85.5883 35.09 84.8283 35.53 83.9283 35.85C83.0483 36.15 82.0683 36.3 80.9883 36.3C79.9083 36.3 78.9283 36.14 78.0483 35.82C77.1683 35.5 76.4083 35.06 75.7683 34.5C75.1483 33.92 74.6683 33.23 74.3283 32.43C73.9883 31.63 73.8183 30.74 73.8183 29.76V25.71ZM106.027 19.5V22.98H96.8766V36H93.1266V19.5H106.027ZM113.545 29.76C113.545 30.76 113.845 31.55 114.445 32.13C115.065 32.71 115.905 33 116.965 33C118.025 33 118.855 32.71 119.455 32.13C120.075 31.55 120.385 30.76 120.385 29.76V25.71C120.385 24.71 120.075 23.92 119.455 23.34C118.855 22.76 118.025 22.47 116.965 22.47C115.925 22.47 115.095 22.76 114.475 23.34C113.855 23.92 113.545 24.71 113.545 25.71V29.76ZM109.795 25.71C109.795 24.73 109.965 23.84 110.305 23.04C110.645 22.24 111.125 21.56 111.745 21C112.385 20.42 113.145 19.98 114.025 19.68C114.905 19.36 115.885 19.2 116.965 19.2C118.045 19.2 119.025 19.36 119.905 19.68C120.785 19.98 121.535 20.42 122.155 21C122.795 21.56 123.285 22.24 123.625 23.04C123.965 23.84 124.135 24.73 124.135 25.71V29.76C124.135 30.74 123.965 31.64 123.625 32.46C123.285 33.26 122.805 33.95 122.185 34.53C121.565 35.09 120.805 35.53 119.905 35.85C119.025 36.15 118.045 36.3 116.965 36.3C115.885 36.3 114.905 36.14 114.025 35.82C113.145 35.5 112.385 35.06 111.745 34.5C111.125 33.92 110.645 33.23 110.305 32.43C109.965 31.63 109.795 30.74 109.795 29.76V25.71Z" fill="white"/>
<defs>
<linearGradient id="paint0_linear" x1="0" y1="25" x2="180" y2="25" gradientUnits="userSpaceOnUse">
<stop stop-color="#4776E6"/>
<stop offset="1" stop-color="#8E54E9"/>
</linearGradient>
</defs>
</svg>
